<?xml version="1.0" encoding="UTF-8"?>
<svg version="1.1" xmlns="http://www.w3.org/2000/svg" width="275" height="202">
<path d="M0 0 C1.53720703 0.92425781 1.53720703 0.92425781 3.10546875 1.8671875 C14.5920905 9.50381051 20.91836277 20.0347994 25 33 C25.24492187 33.70640625 25.48984375 34.4128125 25.7421875 35.140625 C28.49447146 44.11382475 28.12277524 54.55220016 24 63 C19.16481893 72.02265876 12.59939675 77.55870682 3 81 C0.625 81.6875 0.625 81.6875 -2 82 C-3.03833984 82.14888672 -3.03833984 82.14888672 -4.09765625 82.30078125 C-7.47602624 82.5884221 -9.95153219 82.75748335 -12.7734375 80.71875 C-17.08429555 75.9045938 -19.96793699 70.09618904 -22 64 C-21.35039307 64.01571045 -20.70078613 64.0314209 -20.03149414 64.04760742 C-17.04192069 64.11059337 -14.05248751 64.14919021 -11.0625 64.1875 C-10.04091797 64.21263672 -9.01933594 64.23777344 -7.96679688 64.26367188 C-1.79384854 64.32283751 4.54903138 64.2589557 10 61 C14.05601553 54.91273965 12.08475256 46.81766225 10.86328125 40.07421875 C10.35723739 37.60971941 9.84009823 35.1474751 9.3125 32.6875 C9.06822266 31.43904297 8.82394531 30.19058594 8.57226562 28.90429688 C6.87342028 20.8831663 5.67623989 17.08682025 -1.18359375 12.55859375 C-21.76441747 2.3216849 -46.05335722 1.10289243 -68.55734253 -1.51663208 C-70.59390598 -1.75454619 -72.62999055 -1.99659787 -74.66555786 -2.2428894 C-77.55944534 -2.59036892 -80.45489178 -2.91883402 -83.3515625 -3.2421875 C-84.65493309 -3.40266823 -84.65493309 -3.40266823 -85.9846344 -3.56639099 C-91.2228972 -4.12496887 -95.06184183 -3.91430625 -100 -2 C-103.68120053 1.80390722 -104.12704257 5.46016043 -104.1328125 10.59375 C-104.13410156 11.7075 -104.13539062 12.82125 -104.13671875 13.96875 C-104.13091797 15.71671875 -104.13091797 15.71671875 -104.125 17.5 C-104.12886719 18.634375 -104.13273437 19.76875 -104.13671875 20.9375 C-104.211069 36.0892747 -104.211069 36.0892747 -99 50 C-99 50.66 -99 51.32 -99 52 C-98.319375 52.268125 -97.63875 52.53625 -96.9375 52.8125 C-94.88812855 53.64096931 -92.86781151 54.54345047 -90.875 55.5 C-83.19233184 58.73652829 -75.09687202 59.10396889 -66.875 59.4375 C-60.39691837 59.70830664 -54.07937138 60.27020599 -47.6875 61.375 C-46.65761963 61.5460022 -46.65761963 61.5460022 -45.60693359 61.72045898 C-37.02117313 63.31313351 -30.75972746 67.58084042 -25 74 C-17.73323521 85.21642888 -15.51352456 97.190274 -17.8125 110.25 C-18.62760743 113.96134019 -19.58493279 116.98116598 -22 120 C-22.66 120 -23.32 120 -24 120 C-24.27094482 119.11646851 -24.27094482 119.11646851 -24.54736328 118.21508789 C-25.39163525 115.49267078 -26.25814181 112.77780581 -27.125 110.0625 C-27.40859375 109.13630859 -27.6921875 108.21011719 -27.984375 107.25585938 C-30.95830758 98.04313346 -35.16853681 89.72751237 -43.92578125 84.94921875 C-51.6233014 81.1893288 -59.53749184 80.27455093 -67.9699707 79.3059082 C-86.34808909 77.16811984 -100.93255505 70.6660896 -113.25 56.375 C-123.34126323 43.06532977 -127.11532802 28.55288417 -126 12 C-124.5562117 3.08248401 -120.26828381 -4.7129514 -113.125 -10.3125 C-84.27631352 -30.07412395 -27.90004747 -16.83889011 0 0 Z " fill="#FCA8FC" transform="translate(134,76)"/>
<path d="M0 0 C6.099095 7.13594116 8.88026599 14.66074716 9 24 C7.75476812 37.87544098 1.82269755 49.38910834 -8.1640625 59.10546875 C-10.36164239 60.91547546 -12.5984758 62.47211348 -15 64 C-15.80050781 64.54398437 -16.60101563 65.08796875 -17.42578125 65.6484375 C-25.10904243 70.20724659 -32.75801442 71.09831249 -41.55126953 71.88769531 C-50.13061513 72.71592482 -58.71452315 74.71452315 -65 81 C-68.95905202 86.24476397 -70.48438649 91.29537079 -72.15429688 97.51757812 C-72.68471431 99.37144752 -73.33416515 101.19034855 -74 103 C-74.99 103.33 -75.98 103.66 -77 104 C-79.1428233 102.32300785 -79.9423303 101.20446529 -80.6875 98.5625 C-81.71464082 86.85309465 -81.54986704 76.55679372 -74 67 C-66.7399662 59.22694454 -59.33508762 56.77274245 -48.9375 55.9375 C-47.2629034 55.77857634 -45.58842488 55.61840389 -43.9140625 55.45703125 C-43.0880957 55.38049316 -42.26212891 55.30395508 -41.41113281 55.22509766 C-28.15415726 54.05724243 -28.15415726 54.05724243 -16 49 C-15.34 49 -14.68 49 -14 49 C-10.16832176 39.54852702 -9.90905213 30.23632773 -9.75 20.125 C-9.71797485 19.05548096 -9.71797485 19.05548096 -9.68530273 17.96435547 C-9.65474249 13.22696207 -10.30552294 9.92456442 -13 6 C-17.35480882 3.10744809 -21.99085238 4.05704982 -26.9375 4.625 C-28.28678589 4.76832764 -28.28678589 4.76832764 -29.66333008 4.91455078 C-32.77819299 5.25632735 -35.8889563 5.62506528 -39 6 C-40.19689453 6.14244141 -41.39378906 6.28488281 -42.62695312 6.43164062 C-71.22295477 8.24758804 -71.22295477 8.24758804 -97 19 C-100.13886079 23.94332666 -101.10581321 29.20982329 -102.1875 34.875 C-102.36474609 35.73480469 -102.54199219 36.59460937 -102.72460938 37.48046875 C-104.72168838 46.64650136 -104.72168838 46.64650136 -102.6875 55.4375 C-99.81132981 58.10062055 -97.0661876 58.12144069 -93.33203125 58.09765625 C-92.43935547 58.09443359 -91.54667969 58.09121094 -90.62695312 58.08789062 C-89.23379883 58.07532227 -89.23379883 58.07532227 -87.8125 58.0625 C-86.87212891 58.05798828 -85.93175781 58.05347656 -84.96289062 58.04882812 C-82.64186288 58.03704626 -80.32096356 58.02059558 -78 58 C-77 61 -77 61 -78.07421875 63.62890625 C-78.60660156 64.59699219 -79.13898438 65.56507812 -79.6875 66.5625 C-80.20699219 67.53316406 -80.72648437 68.50382812 -81.26171875 69.50390625 C-83.09395127 72.1349098 -83.97128739 73.06851749 -87 74 C-94.98876518 74.37214745 -101.85818136 72.59862931 -107.90625 67.34375 C-113.67798951 61.3763583 -117.07457435 53.90978988 -117.4375 45.5625 C-116.73615314 32.87038417 -111.83678919 20.61925499 -102.4453125 11.90625 C-79.06174091 -6.32247674 -24.93352498 -21.00292152 0 0 Z " fill="#FBA9FB" transform="translate(253,14)"/>
<path d="M0 0 C3.56278089 0.13942681 7.1251426 0.28767078 10.6875 0.4375 C12.19860352 0.49647461 12.19860352 0.49647461 13.74023438 0.55664062 C14.71669922 0.59853516 15.69316406 0.64042969 16.69921875 0.68359375 C17.59471436 0.72025146 18.49020996 0.75690918 19.4128418 0.79467773 C22.00878963 1.00069756 24.45355424 1.46863075 27 2 C28.58280637 2.04084662 30.1672369 2.04249028 31.75 2 C33.16616987 1.96248557 34.58410678 1.95319361 36 2 C36.495 2.495 36.495 2.495 37 3 C39.16296273 3.20931897 41.3309471 3.36797069 43.5 3.5 C49.88888889 3.88888889 49.88888889 3.88888889 51 5 C54.82859235 5.63050231 58.66007062 6.19104714 62.50390625 6.71875 C68.2591695 7.56537714 73.54558095 8.97929584 79 11 C79 11.66 79 12.32 79 13 C78.03707031 12.75765625 77.07414062 12.5153125 76.08203125 12.265625 C61.54746243 8.75325173 46.8186194 6.88164625 32 5 C31.27798401 4.90807373 30.55596802 4.81614746 29.81207275 4.72143555 C19.87758729 3.45753219 9.9401427 2.21863975 0 1 C0 0.67 0 0.34 0 0 Z " fill="#F1B4F1" transform="translate(45,71)"/>
<path d="M0 0 C5.18781849 7.78172774 4.75438538 18.34903767 3.1875 27.25 C2.37239257 30.96134019 1.41506721 33.98116598 -1 37 C-1.66 37 -2.32 37 -3 37 C-4.32 32.38 -5.64 27.76 -7 23 C-5.68 23 -4.36 23 -3 23 C-2.67 25.64 -2.34 28.28 -2 31 C-1.34 31 -0.68 31 0 31 C2.65086731 23.04739807 2.54993081 14.14741362 0.47265625 6.0859375 C0 4 0 4 0 0 Z " fill="#F1B1F0" transform="translate(113,159)"/>
<path d="M0 0 C0.33 0 0.66 0 1 0 C1.25317712 4.55718824 1.25317712 4.55718824 0.00390625 6.7421875 C-1.38082468 9.85648509 -1.22765101 12.48041449 -1.1875 15.875 C-1.18105469 17.06867188 -1.17460937 18.26234375 -1.16796875 19.4921875 C-1.07124365 22.96355316 -1.07124365 22.96355316 -0.4609375 26.203125 C0.10817772 29.65640041 -0.38350977 32.57505429 -1 36 C-5.39612221 28.08698001 -5.123715 17.52895357 -3.36328125 8.8671875 C-2.44158062 5.78286247 -1.43974695 2.8794939 0 0 Z " fill="#EFB2F1" transform="translate(12,76)"/>
<path d="M0 0 C0.66 0 1.32 0 2 0 C3.3272637 4.71602207 2.77784635 8.90921386 2.1875 13.6875 C2.093479 14.48607422 1.99945801 15.28464844 1.90258789 16.10742188 C0.11424916 30.77150169 0.11424916 30.77150169 -2 35 C-2.66 34.67 -3.32 34.34 -4 34 C-3.68305176 33.31591064 -3.36610352 32.63182129 -3.03955078 31.92700195 C-1.85275749 28.58541794 -1.58537016 25.7056448 -1.3671875 22.16796875 C-1.28339844 20.87568359 -1.19960937 19.58339844 -1.11328125 18.25195312 C-1.03367343 16.89714602 -0.95424863 15.54232816 -0.875 14.1875 C-0.78852326 12.81310283 -0.7012914 11.43875295 -0.61328125 10.06445312 C-0.4014227 6.71002601 -0.19727795 3.35531099 0 0 Z " fill="#F0B4F3" transform="translate(244,26)"/>
<path d="M0 0 C0.85916016 0.00064453 1.71832031 0.00128906 2.60351562 0.00195312 C7.47970756 0.03547927 12.1297504 0.37207436 16.9375 1.1875 C16.9375 1.5175 16.9375 1.8475 16.9375 2.1875 C16.34066406 2.17589844 15.74382812 2.16429687 15.12890625 2.15234375 C9.09026084 2.08953466 3.08954891 2.28269428 -2.9375 2.625 C-3.66251709 2.66423584 -4.38753418 2.70347168 -5.13452148 2.74389648 C-8.1456072 2.92561497 -11.00071702 3.17335186 -13.9453125 3.84765625 C-14.99332031 4.01587891 -14.99332031 4.01587891 -16.0625 4.1875 C-16.7225 3.5275 -17.3825 2.8675 -18.0625 2.1875 C-11.89829594 0.38038108 -6.4049581 -0.09170626 0 0 Z " fill="#EFB0EF" transform="translate(52.0625,56.8125)"/>
<path d="M0 0 C3.79565794 3.79565794 3.62144446 9.83787896 4 15 C3.55709679 22.27901802 1.40078494 29.54382234 -2 36 C-2.99 36.495 -2.99 36.495 -4 37 C-3.07760083 32.9556344 -2.2325453 29.48840342 -0.44140625 25.7265625 C1.13484254 21.65138269 1.3806746 18.22934397 1.25 13.9375 C1.24484375 13.25623047 1.2396875 12.57496094 1.234375 11.87304688 C1.1722055 7.82814353 0.76784595 3.96926818 0 0 Z " fill="#EEB6EE" transform="translate(258,23)"/>
<path d="M0 0 C0 0.66 0 1.32 0 2 C-0.54269531 2.18175781 -1.08539063 2.36351562 -1.64453125 2.55078125 C-2.35996094 2.80214844 -3.07539063 3.05351562 -3.8125 3.3125 C-4.87404297 3.67794922 -4.87404297 3.67794922 -5.95703125 4.05078125 C-8.05398829 4.87048807 -8.05398829 4.87048807 -9.40625 6.5 C-11.61912758 8.58270831 -13.76033133 8.96431715 -16.6875 9.6875 C-18.17830078 10.06455078 -18.17830078 10.06455078 -19.69921875 10.44921875 C-20.45847656 10.63097656 -21.21773437 10.81273437 -22 11 C-18.86382753 7.44772602 -15.75142779 5.72162163 -11.4375 3.8125 C-10.30183594 3.30332031 -9.16617188 2.79414063 -7.99609375 2.26953125 C-2.64 0 -2.64 0 0 0 Z " fill="#EEB1F0" transform="translate(177,13)"/>
<path d="M0 0 C2.02045442 0.60183749 4.02111039 1.27306096 6 2 C6.33 2.66 6.66 3.32 7 4 C8.670625 4.7115625 8.670625 4.7115625 10.375 5.4375 C15.14851485 7.4950495 15.14851485 7.4950495 17 10 C17 10.66 17 11.32 17 12 C17.66 12.33 18.32 12.66 19 13 C11.72628027 11.61766412 5.39064389 5.83775734 0 1 C0 0.67 0 0.34 0 0 Z " fill="#F1B2F3" transform="translate(25,136)"/>
<path d="M0 0 C-8.97145478 1.9577539 -17.85719039 2.56408185 -27 3 C-27 2.34 -27 1.68 -27 1 C-22.33984753 -0.11090503 -17.70329059 -0.36343926 -12.9375 -0.625 C-11.73383789 -0.70234375 -11.73383789 -0.70234375 -10.50585938 -0.78125 C-9.72919922 -0.82507813 -8.95253906 -0.86890625 -8.15234375 -0.9140625 C-7.45101318 -0.9548291 -6.74968262 -0.9955957 -6.02709961 -1.03759766 C-3.87745106 -0.99772702 -2.05908574 -0.59788294 0 0 Z " fill="#F1B2F1" transform="translate(234,17)"/>
<path d="M0 0 C0.66 0.33 1.32 0.66 2 1 C0.7934375 1.6496875 0.7934375 1.6496875 -0.4375 2.3125 C-3.27846354 3.80474002 -3.27846354 3.80474002 -4 7 C-6.06640625 8.82421875 -6.06640625 8.82421875 -8.5625 10.6875 C-9.38878906 11.31011719 -10.21507812 11.93273437 -11.06640625 12.57421875 C-11.70449219 13.04472656 -12.34257812 13.51523438 -13 14 C-13 9.94555296 -11.41467129 8.65572488 -8.79296875 5.72265625 C-6.07300394 3.10935673 -3.42623341 1.5813385 0 0 Z " fill="#F2B2F3" transform="translate(27,62)"/>
<path d="M0 0 C-5.49244464 3.66162976 -12.4348972 5.24349198 -19 4 C-19.66 3.01 -20.32 2.02 -21 1 C-20.11248047 1.01740234 -20.11248047 1.01740234 -19.20703125 1.03515625 C-12.69530367 1.10951529 -6.50649349 -0.1275783 0 0 Z " fill="#F1B2F3" transform="translate(142,154)"/>
<path d="M0 0 C0.66 0.33 1.32 0.66 2 1 C1.01 1.33 0.02 1.66 -1 2 C-1.33 2.99 -1.66 3.98 -2 5 C-2.78375 5.45375 -3.5675 5.9075 -4.375 6.375 C-7.37854328 8.23433632 -8.25938749 9.99348748 -10 13 C-10.99 13.33 -11.98 13.66 -13 14 C-11.41813086 8.19981317 -6.96083944 3.78861119 -1.8984375 0.73046875 C-1.27195313 0.48941406 -0.64546875 0.24835938 0 0 Z " fill="#F2B4F3" transform="translate(189,73)"/>
<path d="M0 0 C1.30384904 3.91154711 0.38660784 5.11749804 -1 9 C-2.77206146 14.96384137 -4.31233682 20.81103137 -5 27 C-5.33 27 -5.66 27 -6 27 C-6.47437121 17.51257579 -4.83026836 8.28046004 0 0 Z " fill="#ECB1ED" transform="translate(142,37)"/>
<path d="M0 0 C2.475 0.99 2.475 0.99 5 2 C5 2.66 5 3.32 5 4 C5.99 4.33 6.98 4.66 8 5 C8 5.99 8 6.98 8 8 C8.66 8 9.32 8 10 8 C10.33 10.97 10.66 13.94 11 17 C8.70988152 13.56482228 6.63195099 10.02809081 4.53515625 6.47265625 C3.13026213 4.20981152 1.63348994 2.10159452 0 0 Z " fill="#EEB3F1" transform="translate(95,163)"/>
<path d="M0 0 C0.99 0 1.98 0 3 0 C2.84152588 0.70213623 2.68305176 1.40427246 2.51977539 2.12768555 C1.98109408 5.10447541 1.79208274 7.93483803 1.68359375 10.95703125 C1.64169922 12.06884766 1.59980469 13.18066406 1.55664062 14.32617188 C1.51732422 15.47666016 1.47800781 16.62714844 1.4375 17.8125 C1.39431641 18.98232422 1.35113281 20.15214844 1.30664062 21.35742188 C1.20081721 24.23817031 1.09873175 27.11900123 1 30 C0.67 30 0.34 30 0 30 C0 20.1 0 10.2 0 0 Z " fill="#ECB1EE" transform="translate(28,76)"/>
<path d="M0 0 C6.4596331 1.32505294 10.38917374 5.59409935 15 10 C14.67 10.66 14.34 11.32 14 12 C12.68 11.34 11.36 10.68 10 10 C10 9.01 10 8.02 10 7 C9.401875 6.896875 8.80375 6.79375 8.1875 6.6875 C5.65360186 5.89113201 4.74154109 4.96869862 3 3 C2.443125 2.443125 1.88625 1.88625 1.3125 1.3125 C0.879375 0.879375 0.44625 0.44625 0 0 Z " fill="#F1B6F2" transform="translate(94,140)"/>
<path d="M0 0 C3.63 0 7.26 0 11 0 C11 0.33 11 0.66 11 1 C9.02 1 7.04 1 5 1 C5.33 3.31 5.66 5.62 6 8 C5.34 8 4.68 8 4 8 C0 2.58823529 0 2.58823529 0 0 Z " fill="#F0B5F2" transform="translate(112,140)"/>
<path d="M0 0 C0.33 0 0.66 0 1 0 C1.10957031 0.80824219 1.21914063 1.61648437 1.33203125 2.44921875 C1.49058594 3.51785156 1.64914063 4.58648437 1.8125 5.6875 C1.96332031 6.74324219 2.11414063 7.79898438 2.26953125 8.88671875 C3.02397807 12.10219531 4.29392568 14.20868643 6 17 C5.67 17.66 5.34 18.32 5 19 C1.57064398 15.79189276 0.06409552 13.91517412 -0.09765625 9.08203125 C-0.08605469 8.00308594 -0.07445313 6.92414063 -0.0625 5.8125 C-0.05347656 4.72582031 -0.04445313 3.63914062 -0.03515625 2.51953125 C-0.02355469 1.68808594 -0.01195313 0.85664062 0 0 Z " fill="#EFB0F0" transform="translate(29,109)"/>
<path d="M0 0 C1.32 0.33 2.64 0.66 4 1 C3.67 2.32 3.34 3.64 3 5 C3.66 5 4.32 5 5 5 C5 6.65 5 8.3 5 10 C5.66 10 6.32 10 7 10 C6.67 10.99 6.34 11.98 6 13 C0.44419134 4.738041 0.44419134 4.738041 0 0 Z " fill="#F1B3F3" transform="translate(137,66)"/>
<path d="M0 0 C0.79921875 0.20367188 1.5984375 0.40734375 2.421875 0.6171875 C3.02515625 0.78476562 3.6284375 0.95234375 4.25 1.125 C4.25 1.455 4.25 1.785 4.25 2.125 C-1.03 2.785 -6.31 3.445 -11.75 4.125 C-10.76 3.795 -9.77 3.465 -8.75 3.125 C-8.75 2.465 -8.75 1.805 -8.75 1.125 C-5.45750312 -0.91393155 -3.7130065 -0.98285466 0 0 Z " fill="#F4B4EF" transform="translate(191.75,19.875)"/>
<path d="M0 0 C7.66816143 -0.76681614 7.66816143 -0.76681614 10.93359375 1.11328125 C12.5625 2.5 12.5625 2.5 15 5 C14.01 5.495 14.01 5.495 13 6 C10.9765625 5.29296875 10.9765625 5.29296875 8.625 4.1875 C7.85414062 3.83042969 7.08328125 3.47335938 6.2890625 3.10546875 C4.18313395 2.08844182 2.08790067 1.05348413 0 0 Z " fill="#EBB5EE" transform="translate(79,156)"/>
<path d="M0 0 C0.66 0 1.32 0 2 0 C2.33 0.99 2.66 1.98 3 3 C3.99 2.67 4.98 2.34 6 2 C5.67 3.65 5.34 5.3 5 7 C3.68 6.67 2.36 6.34 1 6 C0.67 4.02 0.34 2.04 0 0 Z " fill="#E8B2E9" transform="translate(173,111)"/>
<path d="M0 0 C1.60031344 3.20062687 0.03173691 5.72271806 -1 9 C-1.66 9 -2.32 9 -3 9 C-3.66 7.35 -4.32 5.7 -5 4 C-4.01 3.67 -3.02 3.34 -2 3 C-2 2.34 -2 1.68 -2 1 C-1.34 0.67 -0.68 0.34 0 0 Z " fill="#F6ADF3" transform="translate(181,104)"/>
<path d="M0 0 C0.66 0.33 1.32 0.66 2 1 C1.360625 1.268125 0.72125 1.53625 0.0625 1.8125 C-2.33131686 2.88667752 -2.33131686 2.88667752 -3 6 C-5.97 6 -8.94 6 -12 6 C-10.68 5.34 -9.36 4.68 -8 4 C-7.31679687 3.63519531 -6.63359375 3.27039063 -5.9296875 2.89453125 C-5.25164062 2.53746094 -4.57359375 2.18039063 -3.875 1.8125 C-2.85019531 1.26529297 -2.85019531 1.26529297 -1.8046875 0.70703125 C-1.20914063 0.47371094 -0.61359375 0.24039063 0 0 Z " fill="#F2B0F4" transform="translate(237,63)"/>
<path d="M0 0 C0.33 0.66 0.66 1.32 1 2 C2.98 1.67 4.96 1.34 7 1 C4.11912454 3.40072955 1.43595166 5.47291037 -2 7 C-1.125 2.25 -1.125 2.25 0 0 Z " fill="#F1AFF2" transform="translate(156,27)"/>
<path d="M0 0 C3 2 3 2 5 4 C5 4.99 5 5.98 5 7 C5.99 7.33 6.98 7.66 8 8 C7.34 8.66 6.68 9.32 6 10 C4.99421411 8.71283353 3.99553202 7.42011342 3 6.125 C2.443125 5.40570313 1.88625 4.68640625 1.3125 3.9453125 C0 2 0 2 0 0 Z " fill="#F2B5F4" transform="translate(16,123)"/>
<path d="M0 0 C0.33 1.32 0.66 2.64 1 4 C-1.97 6.475 -1.97 6.475 -5 9 C-5 4.61031544 -2.87194899 3.23094261 0 0 Z " fill="#EFB3F2" transform="translate(149,28)"/>
<path d="M0 0 C0.66 0 1.32 0 2 0 C0.68775452 3.93673644 -0.91910327 6.22719294 -4 9 C-4.66 8.67 -5.32 8.34 -6 8 C-4 5 -4 5 -2 4 C-0.86649466 1.98330173 -0.86649466 1.98330173 0 0 Z " fill="#EFB2F0" transform="translate(154,141)"/>
<path d="M0 0 C0 3.99904969 -1.72586967 5.80200422 -4 9 C-4.66 7.68 -5.32 6.36 -6 5 C-4.02 3.35 -2.04 1.7 0 0 Z " fill="#EFB0F2" transform="translate(253,60)"/>
<path d="M0 0 C0.99 0.33 1.98 0.66 3 1 C0.525 4.465 0.525 4.465 -2 8 C-2.33 7.34 -2.66 6.68 -3 6 C-1.44444444 1.44444444 -1.44444444 1.44444444 0 0 Z " fill="#F3B1F3" transform="translate(187,91)"/>
<path d="M0 0 C2.475 0.99 2.475 0.99 5 2 C5 2.99 5 3.98 5 5 C3.68 4.67 2.36 4.34 1 4 C0.67 2.68 0.34 1.36 0 0 Z " fill="#EDABEE" transform="translate(138,80)"/>
</svg>
